<?xml version="1.0" encoding="utf-8"?>
<!-- Generator: Adobe Illustrator 15.0.0, SVG Export Plug-In  -->
<!DOCTYPE svg PUBLIC "-//W3C//DTD SVG 1.1//EN" "http://www.w3.org/Graphics/SVG/1.1/DTD/svg11.dtd" [
	<!ENTITY ns_flows "http://ns.adobe.com/Flows/1.0/">
]>
<svg version="1.1"
	 xmlns="http://www.w3.org/2000/svg" xmlns:xlink="http://www.w3.org/1999/xlink" xmlns:a="http://ns.adobe.com/AdobeSVGViewerExtensions/3.0/"
	 x="0px" y="0px" width="198px" height="85px" viewBox="-13.031 -24.957 198 85" enable-background="new -13.031 -24.957 198 85"
	 xml:space="preserve">
<defs>
</defs>
<path fill="#EF6E4B" d="M154.827,33.708c0,0.779,0.451,0.966,1.002,0.415l14.568-14.571c0.551-0.551,0.364-1.002-0.415-1.002
	h-13.738c-0.779,0-1.417,0.638-1.417,1.417V33.708z"/>
<path fill="#EF6E4B" d="M107.856,1.002C108.407,0.451,109.496,0,110.275,0h20.605c0.779,0,0.966,0.451,0.415,1.002l-9.717,9.717
	c-0.551,0.551-1.64,1.002-2.419,1.002H98.556c-0.779,0-0.966-0.451-0.415-1.002L107.856,1.002z"/>
<path fill="#EF6E4B" d="M100.153,34.123c-0.551,0.551-0.364,1.002,0.415,1.002h30.313c0.779,0,1.417-0.638,1.417-1.417V3.395
	c0-0.78-0.451-0.966-1.002-0.416L100.153,34.123z"/>
<path fill="#EF6E4B" d="M151.848,19.967c0-0.779-0.638-1.417-1.417-1.417h-13.74c-0.779,0-1.417,0.638-1.417,1.417v13.741
	c0,0.779,0.638,1.417,1.417,1.417h13.74c0.779,0,1.417-0.638,1.417-1.417V19.967z"/>
<path fill="#EF6E4B" d="M157.805,34.123c-0.551,0.551-0.364,1.002,0.415,1.002h13.74c0.779,0,1.417-0.638,1.417-1.417v-13.74
	c0-0.779-0.451-0.966-1.002-0.415L157.805,34.123z"/>
<path fill="#19717F" d="M12.786,31.426c-0.333,1.704,0,2.535,0.748,2.535c0.623,0,1.62-0.79,2.867-2.036
	c0.167-0.208,0.54,0.125,0.333,0.332c-1.87,2.078-3.241,3.241-4.653,3.241c-1.33,0-1.621-1.039-1.039-4.072l0.831-4.362
	c-2.41,5.11-5.36,8.601-8.559,8.601c-2.036,0-3.864-1.496-3.158-5.775c1.08-6.149,6.232-11.343,11.094-11.343
	c0.748,0,1.496,0.208,2.119,0.665l1.912-10.139c0.333-1.786-0.416-2.368-2.992-1.122c-0.208,0.125-0.416-0.374-0.166-0.457
	l5.11-2.492c0.167-0.084,0.457,0.207,0.416,0.332L12.786,31.426z M12.537,23.365c0.416-2.243-0.582-3.531-2.576-3.49
	c-3.698,0.083-6.897,2.992-7.853,8.477c-0.623,3.739,0.499,5.526,2.368,5.526C8.257,33.878,11.913,26.855,12.537,23.365z"/>
<path fill="#19717F" d="M18.74,31.426l1.704-8.642c0.332-1.704,0-2.535-0.707-2.535c-0.665,0-1.787,0.665-2.992,1.953
	c-0.166,0.208-0.54-0.166-0.332-0.332c1.87-2.119,3.365-3.158,4.736-3.158c1.33,0,1.621,1.039,1.039,4.072l-1.662,8.642
	c-0.333,1.704-0.042,2.535,0.707,2.535c0.623,0,1.745-0.665,2.95-1.953c0.208-0.208,0.54,0.166,0.333,0.332
	c-1.828,2.119-3.324,3.158-4.695,3.158C18.574,35.498,18.117,34.625,18.74,31.426z M20.734,12.022c0-0.956,0.624-1.537,1.662-1.537
	s1.621,0.581,1.621,1.537c0,1.039-0.582,1.62-1.621,1.62S20.734,13.062,20.734,12.022z"/>
<path fill="#19717F" d="M24.454,33.088c0.083-0.665,0.624-0.997,1.122-0.997c1.163,0,0.789,2.701,3.573,2.701
	c1.62,0,2.659-0.914,2.908-2.742c0.665-4.321-6.066-5.028-5.235-9.35c0.499-2.7,3.117-4.03,5.36-4.03
	c1.828,0,3.324,0.914,3.158,1.953c-0.125,0.706-0.665,0.997-1.122,0.997c-1.33,0-1.33-2.077-3.49-2.077
	c-1.08,0-2.119,0.457-2.285,1.745c-0.665,4.113,6.025,5.152,5.277,9.598c-0.416,2.493-2.825,4.695-5.651,4.695
	C26.074,35.581,24.246,34.501,24.454,33.088z"/>
<path fill="#19717F" d="M35.838,26.731c1.122-5.277,5.277-8.186,8.809-8.186c1.995,0,3.656,1.038,3.49,2.368
	c-0.042,0.623-0.416,1.205-1.163,1.205c-0.624,0-1.081-0.416-1.372-1.205c-0.166-0.582-0.831-1.537-2.327-1.537
	c-2.992,0-4.612,2.825-5.235,6.107c-0.873,4.57,0.291,8.892,4.321,8.892c2.036,0,3.407-1.039,4.612-2.036
	c0.166-0.124,0.499,0.208,0.332,0.374c-2.327,2.036-4.446,2.95-6.481,2.95C36.129,35.664,34.965,30.762,35.838,26.731z"/>
<path fill="#19717F" d="M61.233,20.872c-0.167,0.707-0.624,0.998-1.205,0.998c-1.247,0-1.122-1.413-1.953-1.413
	c-2.036,0-5.484,9.391-6.481,14.418c-0.042,0.332-0.416,0.581-1.039,0.581c-0.748,0-0.831-0.083-0.831-0.249
	s0.416-1.911,0.623-3.157l1.288-7.271c0.707-3.781-0.083-4.529-0.79-4.529c-0.831,0-1.828,0.831-2.535,1.496
	c-0.125,0.125-0.457-0.166-0.332-0.332c1.537-1.745,2.95-2.701,4.321-2.701c1.413,0,1.995,1.163,1.122,6.066l-0.873,4.736
	c1.704-5.276,4.363-10.803,6.606-10.803C60.194,18.712,61.482,19.709,61.233,20.872z"/>
<path fill="#19717F" d="M61.877,26.149c-0.914,4.695,0.624,8.144,4.155,8.144c1.371,0,2.867-0.332,4.279-1.371
	c0.167-0.083,0.457,0.208,0.291,0.374c-2.119,1.662-4.03,2.327-5.942,2.327c-4.321,0-5.858-3.823-5.027-8.186
	c0.707-4.113,4.737-8.892,9.349-8.892c1.953,0,2.95,0.872,2.659,2.243C71.102,23.241,66.78,25.401,61.877,26.149z M61.96,25.609
	c3.906-0.623,6.648-1.953,7.188-3.947c0.457-1.537-0.79-1.994-1.953-1.994C64.288,19.668,62.625,22.368,61.96,25.609z"/>
<path fill="#19717F" d="M82.233,19.584c-0.125,0.457-0.79,1.288-1.33,1.288c-0.25,0-2.618-0.374-4.529-0.415l-1.87,10.429
	c-0.457,2.327,0.125,3.366,1.87,3.366s2.992-0.956,4.155-1.953c0.083-0.083,0.457,0.208,0.332,0.332
	c-2.493,2.161-4.238,2.992-5.858,2.992c-1.537,0-2.992-0.79-2.576-3.324l1.829-9.889c0.374-2.078,0.249-2.285-1.413-2.285
	c-0.208,0-0.125-0.499,0.042-0.499c1.787,0,3.2-1.288,3.532-3.074c0-0.167,0.707-0.167,0.665,0l-0.54,2.991
	c1.953-0.042,4.944-0.291,5.401-0.291C82.15,19.252,82.275,19.377,82.233,19.584z"/>
<path fill="#19717F" d="M83.592,26.149c-0.914,4.695,0.624,8.144,4.155,8.144c1.371,0,2.867-0.332,4.279-1.371
	c0.166-0.083,0.457,0.208,0.291,0.374c-2.119,1.662-4.029,2.327-5.941,2.327c-4.321,0-5.859-3.823-5.028-8.186
	c0.707-4.113,4.737-8.892,9.35-8.892c1.951,0,2.949,0.872,2.658,2.243C92.815,23.241,88.495,25.401,83.592,26.149z M83.675,25.609
	c3.906-0.623,6.648-1.953,7.189-3.947c0.457-1.537-0.791-1.994-1.953-1.994C86.002,19.668,84.34,22.368,83.675,25.609z"/>
</svg>
